<?xml version="1.0" encoding="utf-8"?>
<!-- Generator: Adobe Illustrator 23.0.2, SVG Export Plug-In . SVG Version: 6.00 Build 0)  -->
<svg version="1.1" id="Layer_1" xmlns="http://www.w3.org/2000/svg" xmlns:xlink="http://www.w3.org/1999/xlink" x="0px" y="0px"
	 viewBox="0 0 50 50" style="enable-background:new 0 0 50 50;" xml:space="preserve">
<style type="text/css">
	.st0{fill:#3CB29D;}
</style>
<g>
	<path class="st0" d="M23.4,30.37c0.12-0.2,0.22-0.35,0.3-0.51c2.63-4.72,5.25-9.44,7.88-14.16c0.09-0.16,0.17-0.31,0.27-0.47
		c0.67-1.05,1.84-1.41,2.88-0.88c1.03,0.52,1.51,1.78,1.09,2.89c-0.09,0.23-0.2,0.44-0.32,0.66c-3.08,5.55-6.22,11.06-9.23,16.65
		c-1.02,1.89-3.64,1.97-4.8,0.51c-2.13-2.69-4.35-5.3-6.52-7.96c-0.66-0.81-0.55-1.99,0.2-2.83c0.72-0.8,1.7-0.94,2.65-0.37
		c0.41,0.25,0.75,0.58,1.05,0.95c1.35,1.64,2.7,3.28,4.04,4.92C23.06,29.96,23.21,30.14,23.4,30.37z"/>
	<path class="st0" d="M0,25c0,13.81,11.19,25,25,25s25-11.19,25-25c0-9.91-5.76-18.46-14.12-22.51c-2-0.94-4.18-1.64-6.54-2.1
		c-0.17-0.03-0.35-0.07-0.52-0.1C27.58,0.1,26.3,0,25,0c-0.93,0-1.85,0.05-2.76,0.15c-0.06,0.08-0.2,0.02-0.28,0.03
		c-0.58,0.07-1.15,0.16-1.71,0.27c-0.04,0.01-0.07,0.01-0.11,0.02c-0.09,0.02-0.19,0.04-0.28,0.06C8.52,2.9,0,12.96,0,25z
		 M25.04,4.71c11.24,0.04,20.38,9.22,20.35,20.44c-0.04,11.24-9.22,20.38-20.44,20.35C13.72,45.45,4.57,36.27,4.61,25.05
		C4.64,13.82,13.83,4.67,25.04,4.71z"/>
</g>
</svg>
